<svg id="Layer_1" data-name="Layer 1" xmlns="http://www.w3.org/2000/svg" viewBox="0 0 16 16"><defs><style>.cls-1{opacity:0.5;}.cls-2{opacity:0.67;}.cls-3{fill:#fff;}.cls-4{fill:#f0f;}.cls-5{fill:aqua;}.cls-6{fill:lime;}.cls-7{fill:blue;}.cls-8{fill:#ff0;}.cls-9{fill:red;}</style></defs><title>icon.f5</title><g class="cls-1"><path d="M12.75,14.75h-8a2,2,0,0,1-2-2V3.5a.75.75,0,0,1,.75-.75h9.25a2,2,0,0,1,2,2v8A2,2,0,0,1,12.75,14.75Z"/></g><g class="cls-2"><rect x="2.5" y="2.5" width="11" height="11" rx="0.75" ry="0.75"/></g><path class="cls-3" d="M12.5,3a.5.5,0,0,1,.5.5v9a.5.5,0,0,1-.5.5h-9a.5.5,0,0,1-.5-.5v-9A.5.5,0,0,1,3.5,3h9m0-1h-9A1.5,1.5,0,0,0,2,3.5v9A1.5,1.5,0,0,0,3.5,14h9A1.5,1.5,0,0,0,14,12.5v-9A1.5,1.5,0,0,0,12.5,2Z"/><rect class="cls-3" x="14" y="4" width="1.5" height="1"/><rect class="cls-3" x="14" y="11" width="1.5" height="1"/><rect class="cls-3" x="14" y="8.667" width="1.5" height="1"/><rect class="cls-3" x="14" y="6.333" width="1.5" height="1"/><rect class="cls-3" x="11" y="14" width="1" height="1.5"/><rect class="cls-3" x="4" y="14" width="1" height="1.5"/><rect class="cls-3" x="6.333" y="14" width="1" height="1.5"/><rect class="cls-3" x="8.667" y="14" width="1" height="1.5"/><rect class="cls-3" x="0.5" y="11" width="1.5" height="1"/><rect class="cls-3" x="0.5" y="4" width="1.5" height="1"/><rect class="cls-3" x="0.5" y="6.333" width="1.5" height="1"/><rect class="cls-3" x="0.5" y="8.667" width="1.5" height="1"/><rect class="cls-3" x="4" y="0.5" width="1" height="1.5"/><rect class="cls-3" x="11" y="0.5" width="1" height="1.5"/><rect class="cls-3" x="8.667" y="0.5" width="1" height="1.5"/><rect class="cls-3" x="6.333" y="0.5" width="1" height="1.5"/><path class="cls-4" d="M6,8H4.5a3.485,3.485,0,0,0,1.757,3.018L7,9.725A1.991,1.991,0,0,1,6,8Z"/><path class="cls-5" d="M9,9.725l.747,1.294A3.485,3.485,0,0,0,11.5,8H10A1.991,1.991,0,0,1,9,9.725Z"/><path class="cls-6" d="M9,6.275A1.991,1.991,0,0,1,10,8h1.5A3.485,3.485,0,0,0,9.743,4.982Z"/><path class="cls-7" d="M7,9.732l-.75,1.3a3.485,3.485,0,0,0,3.493-.013L9,9.725A1.991,1.991,0,0,1,7,9.732Z"/><path class="cls-8" d="M7,6.275a1.991,1.991,0,0,1,2-.007l.75-1.3a3.485,3.485,0,0,0-3.493.013Z"/><path class="cls-9" d="M7,6.275,6.257,4.982A3.485,3.485,0,0,0,4.5,8H6A1.991,1.991,0,0,1,7,6.275Z"/></svg>