<svg id="Layer_1" data-name="Layer 1" xmlns="http://www.w3.org/2000/svg" xmlns:xlink="http://www.w3.org/1999/xlink" viewBox="0 0 16 16"><defs><style>.cls-1,.cls-5{fill:none;}.cls-2{opacity:0.5;}.cls-3{opacity:0.67;}.cls-4,.cls-7{fill:#fff;}.cls-5,.cls-7{stroke:#fff;}.cls-5{stroke-linejoin:round;}.cls-6{clip-path:url(#clip-path);}.cls-7{stroke-miterlimit:10;stroke-width:0.25px;}</style><clipPath id="clip-path"><rect class="cls-1" x="7.5" y="6.5" width="4" height="3" transform="translate(1.5 17.5) rotate(-90)"/></clipPath></defs><title>icon_wait.f7</title><g class="cls-2"><path d="M12.75,14.75h-8a2,2,0,0,1-2-2V3.5a.75.75,0,0,1,.75-.75h9.25a2,2,0,0,1,2,2v8A2,2,0,0,1,12.75,14.75Z"/></g><g class="cls-3"><rect x="2.5" y="2.5" width="11" height="11" rx="0.75" ry="0.75"/></g><path class="cls-4" d="M12.5,3a.5.5,0,0,1,.5.5v9a.5.5,0,0,1-.5.5h-9a.5.5,0,0,1-.5-.5v-9A.5.5,0,0,1,3.5,3h9m0-1h-9A1.5,1.5,0,0,0,2,3.5v9A1.5,1.5,0,0,0,3.5,14h9A1.5,1.5,0,0,0,14,12.5v-9A1.5,1.5,0,0,0,12.5,2Z"/><rect class="cls-4" x="14" y="4" width="1.5" height="1"/><rect class="cls-4" x="14" y="11" width="1.5" height="1"/><rect class="cls-4" x="14" y="8.667" width="1.5" height="1"/><rect class="cls-4" x="14" y="6.333" width="1.5" height="1"/><rect class="cls-4" x="11" y="14" width="1" height="1.5"/><rect class="cls-4" x="4" y="14" width="1" height="1.5"/><rect class="cls-4" x="6.333" y="14" width="1" height="1.5"/><rect class="cls-4" x="8.667" y="14" width="1" height="1.5"/><rect class="cls-4" x="0.5" y="11" width="1.5" height="1"/><rect class="cls-4" x="0.5" y="4" width="1.5" height="1"/><rect class="cls-4" x="0.5" y="6.333" width="1.5" height="1"/><rect class="cls-4" x="0.5" y="8.667" width="1.5" height="1"/><rect class="cls-4" x="4" y="0.5" width="1" height="1.5"/><rect class="cls-4" x="11" y="0.5" width="1" height="1.5"/><rect class="cls-4" x="8.667" y="0.5" width="1" height="1.5"/><rect class="cls-4" x="6.333" y="0.5" width="1" height="1.5"/><path class="cls-4" d="M1.5,7.5h6a.25.25,0,0,1,.25.25v0A.75.75,0,0,1,7,8.5H2a.75.75,0,0,1-.75-.75v0A.25.25,0,0,1,1.5,7.5Z" transform="translate(-3.5 12.5) rotate(-90)"/><path class="cls-4" d="M8.5,7.5h6a.25.25,0,0,1,.25.25v0A.75.75,0,0,1,14,8.5H9a.75.75,0,0,1-.75-.75v0A.25.25,0,0,1,8.5,7.5Z" transform="translate(19.5 -3.5) rotate(90)"/><path class="cls-5" d="M5,10A2.906,2.906,0,0,0,8,8a2.906,2.906,0,0,0,3,2"/><path class="cls-5" d="M5,6A2.906,2.906,0,0,1,8,8a2.906,2.906,0,0,1,3-2"/><g class="cls-6"><path class="cls-7" d="M7.474,8A2.451,2.451,0,0,1,5,9.5v-3A2.456,2.456,0,0,1,7.474,8Z"/><path class="cls-7" d="M8.526,8A2.451,2.451,0,0,0,11,9.5v-3A2.456,2.456,0,0,0,8.526,8Z"/></g></svg>