<svg id="Layer_1" data-name="Layer 1" xmlns="http://www.w3.org/2000/svg" viewBox="0 0 16 16"><defs><style>.cls-1{opacity:0.5;}.cls-2{opacity:0.67;}.cls-3{fill:#fff;}.cls-4{fill:#696969;}.cls-5{fill:#b2b2b2;}.cls-6{fill:#969696;}.cls-7{fill:#1c1c1c;}.cls-8{fill:#e3e3e3;}.cls-9{fill:#4d4d4d;}.cls-10{fill:#ffbf00;}.cls-11{fill:maroon;}</style></defs><title>icon_paused.f2</title><g class="cls-1"><path d="M12.75,14.75h-8a2,2,0,0,1-2-2V3.5a.75.75,0,0,1,.75-.75h9.25a2,2,0,0,1,2,2v8A2,2,0,0,1,12.75,14.75Z"/></g><g class="cls-2"><rect x="2.5" y="2.5" width="11" height="11" rx="0.75" ry="0.75"/></g><rect class="cls-3" x="14" y="4" width="1.5" height="1"/><rect class="cls-3" x="14" y="11" width="1.5" height="1"/><rect class="cls-3" x="14" y="8.667" width="1.5" height="1"/><rect class="cls-3" x="14" y="6.333" width="1.5" height="1"/><rect class="cls-3" x="11" y="14" width="1" height="1.5"/><rect class="cls-3" x="4" y="14" width="1" height="1.5"/><rect class="cls-3" x="6.333" y="14" width="1" height="1.5"/><rect class="cls-3" x="8.667" y="14" width="1" height="1.5"/><rect class="cls-3" x="0.5" y="11" width="1.5" height="1"/><rect class="cls-3" x="0.5" y="4" width="1.5" height="1"/><rect class="cls-3" x="0.5" y="6.333" width="1.5" height="1"/><rect class="cls-3" x="0.5" y="8.667" width="1.5" height="1"/><rect class="cls-3" x="4" y="0.5" width="1" height="1.5"/><rect class="cls-3" x="11" y="0.5" width="1" height="1.5"/><rect class="cls-3" x="8.667" y="0.5" width="1" height="1.5"/><rect class="cls-3" x="6.333" y="0.5" width="1" height="1.5"/><path class="cls-4" d="M7,6.268l-.75-1.3A3.485,3.485,0,0,0,4.515,8H6.008A1.991,1.991,0,0,1,7,6.268Z"/><path class="cls-5" d="M7,9.725l-.747,1.294a3.485,3.485,0,0,0,3.493.013L9,9.732A1.991,1.991,0,0,1,7,9.725Z"/><path class="cls-6" d="M9.992,8A1.991,1.991,0,0,1,9,9.732l.75,1.3A3.485,3.485,0,0,0,11.485,8Z"/><path class="cls-7" d="M6,8H4.5a3.485,3.485,0,0,0,1.757,3.018L7,9.725A1.991,1.991,0,0,1,6,8Z"/><path class="cls-8" d="M9,6.275A1.991,1.991,0,0,1,10,8h1.5A3.485,3.485,0,0,0,9.743,4.982Z"/><path class="cls-9" d="M9,6.275l.747-1.294A3.485,3.485,0,0,0,6.25,4.969L7,6.268A1.991,1.991,0,0,1,9,6.275Z"/><g class="cls-2"><path d="M8.525,5.216,4.465,12.25A.5.5,0,0,0,4.9,13h8.121a.5.5,0,0,0,.433-.75L9.392,5.216A.5.5,0,0,0,8.525,5.216Z"/></g><path class="cls-10" d="M7.525,4.216,3.465,11.25A.5.5,0,0,0,3.9,12h8.121a.5.5,0,0,0,.433-.75L8.392,4.216A.5.5,0,0,0,7.525,4.216Z"/><path class="cls-11" d="M7.488,8.58,7.275,6.935c0-.042-.014-.1-.025-.187A3.029,3.029,0,0,1,7.2,6.309a.751.751,0,0,1,.824-.824A.755.755,0,0,1,8.6,5.7a.87.87,0,0,1,.2.614c0,.117,0,.226-.009.328s-.016.2-.028.3L8.542,8.58a.474.474,0,0,1-.165.322.558.558,0,0,1-.366.113A.546.546,0,0,1,7.65,8.9.475.475,0,0,1,7.488,8.58Z"/><path class="cls-11" d="M7.205,10.5a.776.776,0,0,1,.232-.565A.758.758,0,0,1,8,9.7a.8.8,0,0,1,.8.8A.8.8,0,0,1,8,11.3a.757.757,0,0,1-.561-.238A.78.78,0,0,1,7.205,10.5Z"/><path class="cls-3" d="M12.5,3a.5.5,0,0,1,.5.5v9a.5.5,0,0,1-.5.5h-9a.5.5,0,0,1-.5-.5v-9A.5.5,0,0,1,3.5,3h9m0-1h-9A1.5,1.5,0,0,0,2,3.5v9A1.5,1.5,0,0,0,3.5,14h9A1.5,1.5,0,0,0,14,12.5v-9A1.5,1.5,0,0,0,12.5,2Z"/></svg>